<?xml version="1.0" encoding="UTF-8"?> <!-- Generator: Adobe Illustrator 23.0.1, SVG Export Plug-In . SVG Version: 6.00 Build 0) --> <svg xmlns="http://www.w3.org/2000/svg" xmlns:xlink="http://www.w3.org/1999/xlink" id="Layer_1" x="0px" y="0px" viewBox="0 0 512 303" style="enable-background:new 0 0 512 303;" xml:space="preserve"> <style type="text/css"> .st0{fill:#FFFFFF;} </style> <g> <g> <path class="st0" d="M404.4,201.1c0.2,0,0.5,0,0.7,0c0.6,0,1.1,0.1,1.7,0.2c0.6,0.1,1.1,0.4,1.5,0.9c0.1,0.2,0.2,0.4,0.3,0.6 c0.1,0.2,0.2,0.4,0.2,0.7c-0.1,0.2-0.2,0.4-0.3,0.6c-0.1,0.2-0.3,0.4-0.4,0.4c-0.6,0.2-1.3,0.2-2,0.1c-0.3,0-0.7,0-1.1,0 c-4-0.2-7.9-0.5-11.9-0.9c-7.3-0.6-14.6-1.1-21.9-1.6c-30.1-2-59.9-3.1-89.2-3.2c-29.4-0.2-59.1,0.2-89.3,1.2 c-3.2,0.1-6.4,0.3-9.5,0.6c-3,0.2-6,0.4-9.1,0.5c-2.9,0.1-5.2,1.4-6.9,4c-7.5,10.3-15.6,20.1-24.3,29.4 c-6.1,6.5-12.5,12.4-19.2,17.6c-6.7,5.2-13.7,9.3-21,12.4c-7.4,3.1-15,4.6-23,4.5c-8,0-16.3-2.1-25-6.1c-4.1-1.8-7.6-4.4-10.7-7.8 c-5-6-5.6-12.4-1.7-19.2c2.8-4.5,6.4-8.1,10.7-11c6.6-4.5,14.3-8.4,23.1-11.5c8.8-3.1,18.1-5.7,28-7.7c9.8-2,19.4-3.6,28.9-4.7 c9.5-1.2,18.1-2,25.9-2.6c3.2-0.2,5.6-1.7,7.4-4.3c6.4-9.7,13.3-21,20.6-34.1s14.3-26.7,21-41.1c6.7-14.4,12.5-28.4,17.3-42 c4.8-13.6,8.1-25.9,9.8-36.8c0.5-3.3,0.4-6.6-0.4-9.9c-1.3-5.3-4.5-8.3-9.5-9.1c-0.7-0.1-1.4-0.1-2-0.1c-1.5,0-3,0.2-4.5,0.6 c-6.5,1.4-14.6,4.5-24.2,9.3c-9.6,4.8-19.7,10.8-30.3,17.9c-10.6,7.1-20.7,14.9-30.3,23.4c-9.7,8.5-17.8,17.1-24.5,25.9 c-6.7,8.8-10.9,17.2-12.8,25.4c-1.4,7,1,12.2,7.2,15.4c5,2.3,10.3,3.3,16,3c5.6-0.3,11-1,16.2-2c3.2-0.7,6.4-1.1,9.5-1.1 c1.4,0,2.7,0.1,3.9,0.2c0.3,0,0.6,0.1,0.9,0.3c0.3,0.2,0.4,0.6,0.3,1.1c-0.2,0.8-0.6,1.3-1.3,1.4c-4.4,0.4-8.8,1-13.2,1.7 c-5.4,1-10.8,1.7-16.3,2c-5.4,0.3-10.8-0.2-16.2-1.7c-2.7-0.7-5.2-1.9-7.5-3.5c-5.6-3.9-7.8-9.3-6.8-16.1 c1.6-8.8,5.9-17.9,12.9-27.3c7-9.4,15.6-18.6,25.8-27.5c10.2-8.9,21-17.1,32.3-24.6c11.3-7.4,22.1-13.6,32.4-18.4 c10.3-4.8,18.9-7.8,26-9c1.7-0.3,3.5-0.5,5.2-0.4c3-0.1,6,0.3,8.8,1.2c5.2,1.7,8.5,5.4,9.9,11c1.2,6,0.5,14.3-2.1,24.7 c-2.6,10.5-6.5,22.1-11.6,34.9c-5.1,12.8-10.7,25.7-17,38.6c-6.2,12.9-12.3,24.9-18.2,35.7c-5.9,10.9-11,19.6-15.3,26.2 c-1.2,1.7-2.3,3.5-3.5,5.3c-0.2,0.5-0.2,1,0,1.4c0.2,0.4,0.6,0.6,1.2,0.6h0.1c1.4,0,2.9,0,4.3-0.1c4.2-0.2,8.4-0.4,12.6-0.6 c8.9-0.4,17.8-0.7,26.7-1C281.3,193.1,342.9,195.2,404.4,201.1z M153,211.9c0.4-0.5,0.8-1,1.3-1.6c0.8-1,1.6-2.1,2.4-3.2 c0.8-1.2,1.6-2.5,2.2-4.1c-0.7,0-1.4,0-2,0c-0.2,0-0.5,0-0.7,0c-0.3,0-0.7,0-1.1,0c-2.5,0.3-5.1,0.7-7.7,1 c-3.3,0.4-6.7,0.8-10,1.2c-7.7,0.7-16.6,2.1-26.8,4c-10.2,1.9-20.1,4.6-29.9,7.9c-9.8,3.3-17.8,7.5-24.1,12.6 c-2.1,1.7-4.1,3.7-5.8,6c-5.2,6.9-4.7,13.2,1.5,19c7.2,6.1,14.7,9.5,22.4,10c7.7,0.6,15.3-0.8,22.9-4.2 c7.6-3.4,14.8-7.9,21.8-13.6c6.9-5.7,13.3-11.6,19-17.9C144.1,222.9,149,217.1,153,211.9z"></path> <path class="st0" d="M263.4,137.5c0.5,1.9-0.2,3.1-2,3.8c-2.8,1-5.5,1.8-8.3,2.3c-2.8,0.5-5.5,0.9-8.3,1.3 c-4.4,0.5-8.5,0.4-12.5-0.3c-1.1,3.4-2.8,6.6-4.9,9.8c-2.1,3.1-4.7,5.7-7.8,7.7c-1.6,1.2-3.6,2-6,2.4c-2.4,0.4-4.2-0.5-5.5-2.9 c-0.8-1.2-1.1-2.4-1-3.7c0.2-1.3,0.5-2.5,1-3.7c0.5-1.2,1-2.3,1.5-3.3c0.5-1,1-2.1,1.5-3.3c2.1-4.1,4.7-8,7.8-11.9 c0.8-0.8,1.6-1.7,2.3-2.5c0.7-0.8,1.5-1.7,2.3-2.5c1-0.8,2.2-1.4,3.5-1.5c1.4-0.2,2.5,0.4,3.3,1.8c0.3,0.7,0.5,1.2,0.5,1.5 c0.6,0.3,1.1,0.7,1.5,1c1.3,1.4,1.8,3,1.5,4.8c0.8,0.3,1.6,0.5,2.3,0.5s1.5,0,2.3,0c7.2,0.2,14.2-1,21.2-3.6 c0.8-0.3,1.6-0.3,2.3,0.3S263.2,136.6,263.4,137.5z M219.2,154.5c3.6-3.4,6.1-7.5,7.6-12.2c-0.3-0.3-0.7-0.7-1.1-1.1 c-0.4-0.4-0.8-0.8-1.1-1.1c-0.2-0.2-0.2-0.3-0.2-0.4c0-0.1-0.1-0.2-0.2-0.4c-0.3,0.7-0.7,1.3-1.2,1.8c-0.5,0.5-1,1.1-1.5,1.8 c-1.1,1.5-2.2,3.1-3.2,4.8c-1,1.7-1.9,3.5-2.7,5.3c-0.3,0.8-0.6,1.6-1,2.3c-0.3,0.7-0.6,1.4-1,2.3c0,0.3-0.1,0.5-0.2,0.5h0.2h-0.2 h0.2c0.5,0,0.9-0.1,1.2-0.3c0.2,0,0.6-0.2,1.2-0.5c0.7-0.3,1.2-0.8,1.7-1.3C218.2,155.5,218.7,155,219.2,154.5z M228,137.7 c0-0.3,0-0.5-0.1-0.4C227.8,137.4,227.8,137.6,228,137.7z"></path> <path class="st0" d="M332.2,26.9c0.8,0.3,1.3,1,1.6,1.9c0.2,0.9,0.1,1.7-0.4,2.4c-2.9,4.6-5.9,9.1-8.8,13.6 c-2.9,4.5-5.9,9-8.8,13.6c-5.2,8.3-10.3,16.6-15.3,24.8c-5,8.2-9.8,16.6-14.5,25c-2.3,4.2-4.6,8.4-7,12.6c-2.4,4.2-4.7,8.4-7,12.8 c-0.2,0.3-0.4,0.8-0.6,1.3c-0.2,0.5-0.5,1-0.7,1.4c-0.2,0.4-0.3,0.7-0.2,0.8c0.1,0.1,0.4-0.1,0.9-0.6c0.5-0.5,1-1,1.5-1.4 c0.5-0.4,1-0.8,1.5-1.1c0.8-0.7,1.7-1.3,2.6-1.9c0.9-0.6,1.9-1.1,3.1-1.4c1.6-0.8,3-0.6,4,0.6c1.1,1.3,1.7,2.8,2.1,4.4 c0,1.7-0.6,3.6-1.7,5.6c-0.3,0.8-0.7,1.8-1.2,2.8c-0.5,1-0.9,1.9-1.2,2.8c-0.5,1.2-1,2.3-1.6,3.3c-0.6,1-1.1,2.1-1.6,3.3l4.9-2.8 l12.9-7.4l2.2-1.3l8.5-4.6c0.3-0.3,0.7-0.6,1.2-0.8c0.5-0.2,0.9-0.4,1.2-0.8c0.3-0.2,0.5-0.3,0.6-0.3c0.1,0,0.3-0.1,0.6-0.3 c1.6-0.8,2.9-0.3,3.9,1.5c0.8,2,0.3,3.5-1.5,4.3l-2.9,1.5l-0.5,0.3l-33.7,19.3c-1.3,0.3-2.5,0.4-3.7,0.3c-1.1-0.2-2-1-2.4-2.5 c-0.3-0.8-0.3-1.7,0.1-2.5c0.4-0.8,0.8-1.7,1.1-2.5c0.3-1,0.7-2,1.2-2.9c0.5-0.9,0.9-1.8,1.2-2.7c1-1.9,1.9-3.7,2.7-5.6 c0.8-1.9,1.7-3.7,2.7-5.6c0-0.3,0.2-0.7,0.5-1c-0.7,0.5-1.3,1.1-1.8,1.7c-0.6,0.6-1.1,1.1-1.6,1.7c-2.6,2.2-5.4,5-8.3,8.4 c-1.1,1.4-2.3,2.8-3.5,4.2c-1.2,1.4-2.6,2.8-4,3.9c-1,0.7-1.9,0.8-2.7,0.3c-0.6-0.3-1-0.9-1-1.8c0-0.8,0-1.6,0-2.3 c0.2-0.8,0.4-1.7,0.6-2.5c0.2-0.8,0.5-1.7,0.9-2.5c1.5-3.4,3.1-6.8,4.8-10.2c1.7-3.4,3.5-6.8,5.3-10.2c4.6-8.6,9.2-17.2,14-25.5 c4.8-8.4,9.7-16.7,14.8-25c5-8.5,10.2-16.7,15.4-24.8c5.2-8,10.4-16.1,15.6-24.3C329.2,26.5,330.6,26.1,332.2,26.9z"></path> <path class="st0" d="M369.1,135.7c0.8-0.5,1.6-0.6,2.3-0.3c0.7,0.3,1.3,0.8,1.7,1.5c0.4,0.7,0.5,1.4,0.4,2.3 c-0.2,0.8-0.7,1.5-1.5,2c-4.4,2.5-8.8,5-13.2,7.5c-4.4,2.5-8.8,4.9-13.2,7.2c-2,1-3.9,2-5.9,2.9c-2,0.9-3.9,1.9-5.9,2.9 c-0.8,0.3-1.6,0.8-2.3,1.3c-0.7,0.5-1.6,0.8-2.6,0.8c-1.3,0.2-2.4-0.3-3.3-1.4c-0.9-1.1-1.2-2.3-0.9-3.7c0.3-1,0.7-1.9,1.2-2.7 c0.5-0.8,1-1.6,1.5-2.4c0.5-1,1-2,1.6-3c0.6-1,1.1-2,1.6-3c0.8-1.4,1.6-2.8,2.3-4.2c0.7-1.4,1.5-2.8,2.3-4.2l1.2-2l-2.2,1.5 c-1.5,1.2-3,2.5-4.5,3.8c-1.5,1.4-3,2.7-4.4,3.9c-1.4,1.3-2.6,2.4-3.5,3.3c-1,0.9-1.5,1.5-1.7,1.7c-2.1,1.9-4.1,3.7-6,5.6 c-1.9,1.9-3.8,3.7-5.7,5.6c-1.3,1.2-2.6,1.4-3.8,0.5c-1.2-0.8-1.7-2-1.3-3.6c0.5-2.7,1.3-5.4,2.6-8c1.2-2.6,2.6-5.2,4.3-7.9 c1.6-2.6,3.3-5.2,5-7.6c1.7-2.5,3.2-4.9,4.5-7.2c0.5-0.8,1.1-1.3,2-1.4c0.8-0.1,1.5,0.1,2.2,0.5c0.6,0.4,1.1,1,1.5,1.8 c0.3,0.8,0.2,1.6-0.2,2.4c-1.3,2.4-2.6,4.7-4,6.9c-1.4,2.2-2.8,4.4-4.3,6.6c0.8-0.8,1.6-1.6,2.4-2.3c0.8-0.7,1.6-1.4,2.4-2.3 c2.3-1.9,4.5-3.7,6.7-5.6c2.2-1.9,4.5-3.6,7-5.1c1.6-0.8,3.4-1.6,5.4-2.3c2-0.7,3.4-0.5,4.4,0.5c0.8,0.5,1.2,1.4,1.2,2.5 c0,1.4-0.4,2.6-1.2,3.7c-0.8,1.1-1.5,2.2-2.2,3.4c-0.8,1.4-1.5,2.7-2.2,3.9c-0.7,1.3-1.4,2.6-2.2,3.9c-0.8,1.4-1.5,2.7-2.2,4.1 c-0.7,1.4-1.4,2.7-2.2,4.1c0,0.2-0.1,0.3-0.2,0.5c0.5-0.2,1.4-0.6,2.7-1.3c1.8-0.8,3.6-1.7,5.4-2.7c1.8-0.9,3.6-1.9,5.4-2.9 c3.7-2,7.4-4.1,10.9-6.1C361.7,139.8,365.3,137.7,369.1,135.7z"></path> </g> <g> <path class="st0" d="M177.3,253.8v-40.5H193l4.6,4.6v14l-1.7,1.7l1.7,1.7v14l-4.6,4.6H177.3z M183.1,230.7h7.5l1.2-1.2v-9.2 l-1.2-1.2h-7.5V230.7z M183.1,248.1h7.5l1.2-1.2v-9.2l-1.2-1.2h-7.5V248.1z"></path> <path class="st0" d="M208,253.8v-35.9l4.6-4.6h11.1l4.6,4.6v35.9h-5.8v-14.5h-8.7v14.5H208z M213.8,233.6h8.7v-13.2l-1.2-1.2H215 l-1.2,1.2V233.6z"></path> <path class="st0" d="M238.6,253.8v-40.5h15.7l4.6,4.6v16.9l-4.4,4.4l6.3,14.7h-6.3l-6.2-14.4h-3.9v14.4H238.6z M244.4,233.6h7.5 l1.2-1.2v-12.1l-1.2-1.2h-7.5V233.6z"></path> <path class="st0" d="M270.1,253.8v-40.5h15.7l4.6,4.6v14l-1.7,1.7l1.7,1.7v14l-4.6,4.6H270.1z M275.9,230.7h7.5l1.2-1.2v-9.2 l-1.2-1.2h-7.5V230.7z M275.9,248.1h7.5l1.2-1.2v-9.2l-1.2-1.2h-7.5V248.1z"></path> <path class="st0" d="M300.8,253.8v-40.5h17.4v5.8h-11.6v11.6h8.7v5.8h-8.7v11.6h11.6v5.8H300.8z"></path> <path class="st0" d="M328.6,253.8v-40.5h15.7l4.6,4.6v16.9l-4.4,4.4l6.3,14.7h-6.3l-6.2-14.4h-3.9v14.4H328.6z M334.3,233.6h7.5 l1.2-1.2v-12.1l-1.2-1.2h-7.5V233.6z"></path> <path class="st0" d="M364.6,253.8l-4.6-4.6v-7h5.8v4.6l1.2,1.2h6.3l1.2-1.2v-6.1L360,229.2v-11.3l4.6-4.6h11.1l4.6,4.6v7h-5.8 v-4.6l-1.2-1.2H367l-1.2,1.2v6.1l14.5,11.6v11.3l-4.6,4.6H364.6z"></path> <path class="st0" d="M390.7,253.8v-40.5h5.8v17.4h8.7v-17.4h5.8v40.5h-5.8v-17.4h-8.7v17.4H390.7z"></path> <path class="st0" d="M426,253.8l-4.6-4.6v-31.3l4.6-4.6H437l4.6,4.6v31.3l-4.6,4.6H426z M428.4,248.1h6.3l1.2-1.2v-26.5l-1.2-1.2 h-6.3l-1.2,1.2v26.5L428.4,248.1z"></path> <path class="st0" d="M452.1,253.8v-40.5h15.7l4.6,4.6v16.9l-4.6,4.6h-9.9v14.5H452.1z M457.9,233.6h7.5l1.2-1.2v-12.1l-1.2-1.2 h-7.5V233.6z"></path> </g> <g> <path class="st0" d="M392.6,90.3c1.4,0.5,1.7,1.1,0.9,1.8l-5.1,5.1c-0.8,0.8-1.9,0.9-3.3,0.4c-1.4-0.5-1.7-1.1-0.9-1.8l5.1-5.1 C390.1,90,391.2,89.8,392.6,90.3z"></path> <path class="st0" d="M448.6,121c0.3,0.8,0.3,1.7,0,2.5c-0.3,0.8-0.9,1.4-1.7,1.8c-5.2,2.4-10.5,4.9-16,7.5 c-5.5,2.6-10.8,5.5-16,8.5c-0.5,1.2-1.1,2.3-1.7,3.3c-0.7,1-1.2,1.9-1.7,2.8c-4.4,5.9-9,11.1-13.7,15.5c-2.4,2.7-4.7,5-6.8,6.9 c-1.3,1-2.6,1.9-4,2.7c-1.4,0.8-2.9,1.3-4.5,1.7c-1.5,0.3-2.8,0.3-4.2-0.3c-1.3-0.5-2.4-1.4-3.2-2.8c-0.8-1.4-1.1-2.8-0.7-4.4 c0.3-1.6,0.9-3.1,1.7-4.4c0.8-1.4,1.8-2.6,3.1-3.8c1.2-1.2,2.5-2.2,3.8-3c1.3-1,2.7-2,4.1-2.9c1.5-0.9,2.8-1.9,4.2-2.9 c2.6-1.9,5.3-3.7,8.2-5.5c2.8-1.8,5.8-3.6,8.9-5.5c0.5-0.3,1.2-0.8,2.2-1.3V136l-0.2-0.5v-0.3c0-0.2,0-0.4-0.1-0.6 c-0.1-0.3,0-0.2,0.1,0.1c-0.3-0.3-0.7-0.6-1-0.8c-0.5-0.3-1.1-0.5-1.7-0.4c-0.7,0.1-1.3,0.1-2,0.1c-1.5,0.2-2.9,0.2-4.4,0.1 c-1.5-0.1-2.8-0.5-3.9-1.4c-1.3-1.2-2.1-2.7-2.3-4.4c-0.2-1.8,0-3.5,0.9-5.2c1.5-3,3.4-5.9,5.7-8.5c2.4-2.6,4.9-5,7.7-7 c0.8-0.5,1.7-1,2.8-1.4c1.1-0.4,2.1-0.6,3.1-0.6c2.3,0.3,3.4,1.9,3.4,4.6c0,0.8-0.2,1.7-0.7,2.5c-0.5,0.8-0.9,1.7-1.2,2.5 c-1,1.5-1.9,3.1-2.7,4.8c-1.1,1.9-2.6,2.3-4.4,1.3c-1.5-1.2-1.6-2.6-0.5-4.3c0.2-0.2,0.2-0.3,0.2-0.5c0-0.2,0.1-0.3,0.2-0.5 c-1,1-1.8,1.8-2.4,2.3c-0.5,0.5-1.1,1.1-1.8,1.9s-1.4,1.6-2.1,2.5c-0.7,0.9-1.2,1.9-1.7,2.9c-0.5,1-0.7,1.9-0.7,2.5 c1.1,0.3,2.3,0.5,3.5,0.4c1.2-0.1,2.4-0.2,3.7-0.3c1.2-0.1,2.4,0,3.5,0.3c1.1,0.3,2.1,0.9,2.9,1.9c0.8,1.2,1.4,2.5,1.7,3.8 c4.7-2.5,9.4-5,14.2-7.4c4.7-2.4,9.6-4.6,14.6-6.6c0.8-0.3,1.5-0.5,2.2-0.4C447.8,119.7,448.3,120.1,448.6,121z M394.4,159.1 c1.8-1.9,3.5-3.7,5.1-5.6c1.6-1.9,3.3-3.9,4.9-6.1c-2.9,1.9-5.7,3.7-8.3,5.6c-2.6,1.9-5.4,3.7-8.3,5.6c-1.3,0.8-2.5,1.7-3.7,2.7 c-1.1,0.9-2.1,2-2.9,3.2c-0.5,0.8-0.8,1.4-1,1.8v0.5v0.5v0.3v0.3l0.2,0.3c0.5,0.2,0.6,0.2,0.2,0.1c-0.3-0.1-0.2,0,0.2,0.1h0.5h0.2 h0.2c0.5,0,0.9-0.2,1.2-0.5c1.3-0.5,2.5-1.2,3.7-2C389.8,163.5,392.3,161.3,394.4,159.1z"></path> </g> <g> <path class="st0" d="M322.2,281.9v-13.4h1.4v7.4h0c0.6-0.9,1.5-1.4,2.5-1.4c1,0,1.8,0.4,2.5,1.1c0.6,0.7,0.9,1.6,0.9,2.7 c0,1.1-0.3,2-0.9,2.8c-0.6,0.8-1.5,1.1-2.5,1.1c-0.5,0-1-0.1-1.4-0.4c-0.4-0.2-0.8-0.6-1.1-1h0v1.1H322.2z M325.8,281 c0.7,0,1.3-0.3,1.7-0.8c0.4-0.5,0.6-1.1,0.6-1.9c0-0.7-0.2-1.3-0.6-1.8c-0.4-0.5-1-0.7-1.7-0.7c-0.7,0-1.2,0.3-1.7,0.8 c-0.4,0.5-0.6,1.1-0.6,1.8c0,0.7,0.2,1.3,0.6,1.9C324.6,280.7,325.1,281,325.8,281z"></path> <path class="st0" d="M333.1,280.7l-3.3-6h1.6l2.4,4.6l2.3-4.6h1.6l-5.8,11.4h-1.6L333.1,280.7z"></path> <path class="st0" d="M345.1,270.3h1.5v7.4c0,0.6,0,1.2-0.1,1.7c-0.1,0.5-0.2,0.9-0.4,1.4s-0.5,0.8-1,1.1c-0.4,0.2-1,0.4-1.6,0.4 s-1.3-0.2-1.8-0.5l0.7-1.2c0.3,0.3,0.7,0.4,1.2,0.4c0.2,0,0.4,0,0.6-0.1c0.2-0.1,0.3-0.2,0.4-0.3s0.2-0.3,0.3-0.5s0.1-0.4,0.2-0.5 c0-0.1,0.1-0.3,0.1-0.6s0-0.5,0-0.6c0-0.1,0-0.3,0-0.6V270.3z"></path> <path class="st0" d="M348.9,275.6c0.7-0.7,1.7-1.1,2.7-1.1c1.1,0,2,0.4,2.7,1.1c0.7,0.7,1.1,1.7,1.1,2.7c0,1.1-0.4,2-1.1,2.7 s-1.7,1.1-2.7,1.1c-1.1,0-2-0.4-2.7-1.1s-1.1-1.7-1.1-2.7C347.8,277.3,348.2,276.4,348.9,275.6z M353.4,276.6 c-0.5-0.5-1.1-0.7-1.7-0.7c-0.7,0-1.3,0.2-1.7,0.7c-0.5,0.5-0.7,1.1-0.7,1.8c0,0.7,0.2,1.3,0.7,1.8c0.5,0.5,1.1,0.7,1.7,0.7 c0.7,0,1.3-0.3,1.7-0.7c0.5-0.5,0.7-1.1,0.7-1.8C354.1,277.7,353.9,277.1,353.4,276.6z"></path> <path class="st0" d="M356.8,268.6h1.4v7.1h0c0.2-0.4,0.5-0.7,0.9-0.9c0.4-0.2,0.8-0.3,1.3-0.3c0.9,0,1.6,0.3,2,0.8 c0.4,0.6,0.6,1.3,0.6,2.3v4.3h-1.4v-4.1c0-0.7-0.1-1.2-0.3-1.6c-0.2-0.3-0.6-0.5-1.3-0.5c-0.3,0-0.5,0-0.8,0.1 c-0.2,0.1-0.4,0.2-0.5,0.4c-0.1,0.2-0.2,0.3-0.3,0.5c-0.1,0.1-0.1,0.4-0.2,0.6c0,0.3,0,0.5-0.1,0.6c0,0.2,0,0.4,0,0.7v3.3h-1.4 V268.6z"></path> <path class="st0" d="M366.2,274.7v1h0c0.2-0.4,0.5-0.7,0.9-0.9c0.4-0.2,0.8-0.3,1.3-0.3c0.9,0,1.6,0.3,2,0.8 c0.4,0.6,0.6,1.3,0.6,2.3v4.3h-1.4v-4.1c0-0.7-0.1-1.2-0.3-1.6c-0.2-0.3-0.6-0.5-1.3-0.5c-0.3,0-0.5,0-0.8,0.1 c-0.2,0.1-0.4,0.2-0.5,0.4c-0.1,0.2-0.2,0.3-0.3,0.5c-0.1,0.1-0.1,0.4-0.2,0.6c0,0.3,0,0.5-0.1,0.6c0,0.2,0,0.4,0,0.7v3.3h-1.4 v-7.2H366.2z"></path> <path class="st0" d="M377.4,281.9v-11.6h1.4c0.6,0,1.1,0,1.6,0.1c0.5,0.1,0.9,0.2,1.3,0.5c0.4,0.2,0.7,0.5,1,1 c0.2,0.4,0.3,1,0.3,1.6c0,0.4-0.1,0.9-0.3,1.3c-0.2,0.4-0.5,0.7-0.9,0.9v0c0.7,0.1,1.2,0.5,1.7,1s0.7,1.2,0.7,1.9 c0,1.1-0.4,1.9-1.2,2.4s-1.7,0.8-2.9,0.8H377.4z M378.9,271.6v3.9h0.4c0.8,0,1.4-0.1,1.9-0.4c0.4-0.3,0.6-0.8,0.6-1.5 c0-0.8-0.2-1.3-0.6-1.5s-1-0.4-1.8-0.4H378.9z M378.9,276.6v4h1.1c1.8,0,2.7-0.7,2.7-2.1c0-0.4-0.1-0.7-0.3-1s-0.4-0.5-0.7-0.6 c-0.3-0.1-0.6-0.2-0.9-0.3c-0.3-0.1-0.7-0.1-1-0.1H378.9z"></path> <path class="st0" d="M392.4,274.7v7.2H391v-1.1h0c-0.6,0.9-1.4,1.4-2.5,1.4c-1.1,0-1.9-0.4-2.5-1.1c-0.6-0.8-0.9-1.7-0.9-2.8 c0-1,0.3-1.9,0.9-2.7c0.6-0.7,1.5-1.1,2.5-1.1c1,0,1.9,0.5,2.5,1.4h0v-1.2H392.4z M388.8,281c0.7,0,1.3-0.3,1.7-0.8 s0.6-1.1,0.6-1.9c0-0.7-0.2-1.3-0.6-1.8s-1-0.7-1.7-0.7c-0.7,0-1.2,0.3-1.7,0.8c-0.4,0.5-0.6,1.1-0.6,1.8c0,0.7,0.2,1.3,0.6,1.9 C387.5,280.7,388.1,281,388.8,281z"></path> <path class="st0" d="M395.7,274.7v1.2h0c0.2-0.4,0.4-0.8,0.8-1s0.7-0.4,1.2-0.4c0.4,0,0.8,0.1,1.1,0.4l-0.6,1.3 c-0.2-0.2-0.5-0.3-0.8-0.3c-0.4,0-0.7,0.1-0.9,0.2c-0.2,0.1-0.4,0.4-0.5,0.6s-0.2,0.5-0.2,0.8c0,0.3-0.1,0.6-0.1,0.9v3.5h-1.4 v-7.2H395.7z"></path> <path class="st0" d="M399.5,281.9v-13.4h1.4v7.4h0c0.6-0.9,1.5-1.4,2.5-1.4c1,0,1.8,0.4,2.5,1.1c0.6,0.7,0.9,1.6,0.9,2.7 c0,1.1-0.3,2-0.9,2.8c-0.6,0.8-1.5,1.1-2.5,1.1c-0.5,0-1-0.1-1.4-0.4c-0.4-0.2-0.8-0.6-1.1-1h0v1.1H399.5z M403.1,281 c0.7,0,1.3-0.3,1.7-0.8c0.4-0.5,0.6-1.1,0.6-1.9c0-0.7-0.2-1.3-0.6-1.8c-0.4-0.5-1-0.7-1.7-0.7c-0.7,0-1.2,0.3-1.7,0.8 c-0.4,0.5-0.6,1.1-0.6,1.8c0,0.7,0.2,1.3,0.6,1.9C401.9,280.7,402.4,281,403.1,281z"></path> <path class="st0" d="M414.6,278.6h-5.5c0,0.6,0.2,1.2,0.6,1.7c0.4,0.5,0.9,0.7,1.6,0.7c0.5,0,0.9-0.1,1.2-0.3 c0.3-0.2,0.6-0.6,0.9-1.1l1.2,0.7c-0.3,0.6-0.8,1.1-1.4,1.5c-0.6,0.4-1.2,0.5-2,0.5c-1.1,0-1.9-0.4-2.6-1.1c-0.6-0.7-1-1.6-1-2.7 c0-1.2,0.3-2.1,0.9-2.8c0.6-0.7,1.5-1.1,2.6-1.1c1.1,0,1.9,0.4,2.5,1.1c0.6,0.7,0.9,1.6,0.9,2.8V278.6z M409.1,277.5h4 c-0.1-0.6-0.3-1-0.6-1.3c-0.4-0.3-0.8-0.5-1.3-0.5c-0.5,0-1,0.2-1.4,0.5C409.4,276.6,409.2,277,409.1,277.5z"></path> <path class="st0" d="M417.2,274.7v1.2h0c0.2-0.4,0.4-0.8,0.8-1s0.7-0.4,1.2-0.4c0.4,0,0.8,0.1,1.1,0.4l-0.6,1.3 c-0.2-0.2-0.5-0.3-0.8-0.3c-0.4,0-0.7,0.1-0.9,0.2c-0.2,0.1-0.4,0.4-0.5,0.6s-0.2,0.5-0.2,0.8c0,0.3-0.1,0.6-0.1,0.9v3.5h-1.4 v-7.2H417.2z"></path> <path class="st0" d="M433.8,281.9l-1.3-1.6c-1,1.2-2.2,1.8-3.5,1.8c-1,0-1.8-0.3-2.5-1c-0.7-0.6-1-1.5-1-2.5 c0-0.7,0.2-1.2,0.5-1.7c0.3-0.5,0.9-0.9,1.5-1.4l0.7-0.5c-0.9-0.9-1.3-1.7-1.3-2.5c0-0.8,0.3-1.4,0.8-1.9c0.5-0.5,1.1-0.7,1.9-0.7 c0.7,0,1.4,0.2,1.9,0.7c0.5,0.4,0.8,1,0.8,1.8c0,0.3-0.1,0.6-0.2,0.9s-0.3,0.6-0.5,0.8c-0.2,0.3-0.5,0.5-0.6,0.6 c-0.2,0.2-0.4,0.4-0.8,0.6l2.4,2.9l1.4-1.6l0.9,1l-1.4,1.7l2.1,2.6H433.8z M429.1,276.2l-0.1,0.1c0,0-0.1,0.1-0.3,0.2 s-0.3,0.2-0.4,0.3c-0.1,0-0.2,0.1-0.3,0.3s-0.3,0.2-0.4,0.3c-0.1,0.1-0.2,0.2-0.3,0.3c-0.1,0.1-0.2,0.3-0.3,0.4s-0.1,0.2-0.1,0.4 c0,0.1-0.1,0.3-0.1,0.4c0,0.6,0.2,1.1,0.7,1.5c0.4,0.4,0.9,0.7,1.5,0.7c0.3,0,0.7-0.1,1-0.3c0.4-0.2,0.6-0.4,0.8-0.5 c0.2-0.2,0.5-0.4,0.8-0.7L429.1,276.2z M429.4,274.4l0.2-0.1c0,0,0.1-0.1,0.3-0.2c0.2-0.1,0.3-0.2,0.3-0.3s0.2-0.1,0.3-0.3 c0.1-0.1,0.2-0.2,0.3-0.3c0.1-0.1,0.1-0.2,0.2-0.3c0-0.1,0.1-0.3,0.1-0.4c0-0.4-0.1-0.7-0.4-0.9s-0.6-0.3-1-0.3 c-0.4,0-0.7,0.1-0.9,0.3s-0.4,0.5-0.4,0.9c0,0.2,0,0.4,0.1,0.6c0.1,0.2,0.2,0.3,0.2,0.4c0.1,0.1,0.2,0.3,0.3,0.5L429.4,274.4z"></path> <path class="st0" d="M447.3,271.8l-1.2,0.7c-0.4-0.7-1.1-1.1-1.9-1.1c-0.5,0-0.9,0.2-1.3,0.5c-0.4,0.3-0.6,0.7-0.6,1.2 c0,0.7,0.5,1.3,1.6,1.7l0.8,0.3c0.9,0.4,1.6,0.8,2.1,1.3s0.7,1.3,0.7,2.2c0,1-0.4,1.9-1.1,2.6c-0.7,0.7-1.6,1-2.6,1 c-0.9,0-1.7-0.3-2.4-0.9c-0.7-0.6-1.1-1.4-1.2-2.3l1.5-0.3c0,0.6,0.2,1.2,0.6,1.6s1,0.6,1.6,0.6c0.6,0,1.1-0.2,1.5-0.7 c0.4-0.4,0.6-1,0.6-1.6c0-0.6-0.2-1-0.5-1.3c-0.4-0.3-0.8-0.6-1.5-0.9l-0.8-0.3c-0.8-0.3-1.4-0.7-1.9-1.2c-0.4-0.4-0.7-1-0.7-1.8 c0-0.9,0.3-1.6,1-2.2c0.7-0.6,1.5-0.8,2.4-0.8C445.6,270.1,446.6,270.7,447.3,271.8z"></path> <path class="st0" d="M449.5,275.6c0.7-0.7,1.7-1.1,2.7-1.1c1.1,0,2,0.4,2.7,1.1c0.7,0.7,1.1,1.7,1.1,2.7c0,1.1-0.4,2-1.1,2.7 s-1.7,1.1-2.7,1.1c-1.1,0-2-0.4-2.7-1.1s-1.1-1.7-1.1-2.7C448.4,277.3,448.8,276.4,449.5,275.6z M454,276.6 c-0.5-0.5-1.1-0.7-1.7-0.7c-0.7,0-1.3,0.2-1.7,0.7c-0.5,0.5-0.7,1.1-0.7,1.8c0,0.7,0.2,1.3,0.7,1.8c0.5,0.5,1.1,0.7,1.7,0.7 c0.7,0,1.3-0.3,1.7-0.7c0.5-0.5,0.7-1.1,0.7-1.8C454.7,277.7,454.5,277.1,454,276.6z"></path> <path class="st0" d="M458.8,274.7v1h0c0.2-0.4,0.5-0.7,0.9-0.9c0.4-0.2,0.8-0.3,1.3-0.3c0.9,0,1.6,0.3,2,0.8 c0.4,0.6,0.6,1.3,0.6,2.3v4.3h-1.4v-4.1c0-0.7-0.1-1.2-0.3-1.6c-0.2-0.3-0.6-0.5-1.3-0.5c-0.3,0-0.5,0-0.8,0.1 c-0.2,0.1-0.4,0.2-0.5,0.4c-0.1,0.2-0.2,0.3-0.3,0.5c-0.1,0.1-0.1,0.4-0.2,0.6c0,0.3,0,0.5-0.1,0.6c0,0.2,0,0.4,0,0.7v3.3h-1.4 v-7.2H458.8z"></path> <path class="st0" d="M469.5,275.8l-1.1,0.6c-0.2-0.4-0.5-0.6-0.9-0.6c-0.2,0-0.4,0.1-0.5,0.2c-0.2,0.1-0.2,0.3-0.2,0.5 c0,0.1,0,0.2,0,0.3s0.1,0.1,0.2,0.2c0.1,0.1,0.1,0.1,0.2,0.2c0.1,0.1,0.1,0.1,0.3,0.2c0.1,0.1,0.2,0.1,0.3,0.2 c0.1,0,0.2,0.1,0.4,0.2s0.3,0.1,0.3,0.2c0.5,0.2,0.9,0.5,1.2,0.8c0.3,0.3,0.4,0.7,0.4,1.2c0,0.7-0.2,1.2-0.7,1.7 c-0.5,0.5-1.1,0.7-1.8,0.7c-0.5,0-1.1-0.1-1.5-0.4c-0.5-0.3-0.8-0.7-1-1.2l1.2-0.5c0.3,0.6,0.8,0.9,1.3,0.9c0.3,0,0.6-0.1,0.8-0.3 s0.3-0.4,0.3-0.7c0-0.3-0.2-0.6-0.5-0.8l-1.4-0.7c-0.5-0.3-0.8-0.5-1-0.8c-0.2-0.3-0.3-0.6-0.3-1.1c0-0.6,0.2-1.1,0.6-1.5 s0.9-0.6,1.5-0.6C468.4,274.5,469.1,274.9,469.5,275.8z"></path> </g> </g> </svg> 