<?xml version="1.0" encoding="UTF-8"?> <svg xmlns="http://www.w3.org/2000/svg" xmlns:xlink="http://www.w3.org/1999/xlink" version="1.1" id="Layer_1" x="0px" y="0px" viewBox="0 0 512.024 512.024" style="enable-background:new 0 0 512.024 512.024;" xml:space="preserve" width="512px" height="512px"><g><g> <g> <g> <path d="M119.467,42.679H102.4c-4.713,0-8.533,3.82-8.533,8.533s3.82,8.533,8.533,8.533h17.067c4.713,0,8.533-3.82,8.533-8.533 S124.18,42.679,119.467,42.679z" data-original="#000000" class="active-path" data-old_color="#000000" fill="#a9ff37"></path> <path d="M110.933,213.345c-42.667,0-76.8,26.795-76.8,59.733c0,32.939,34.133,59.733,76.8,59.733s76.8-26.795,76.8-59.733 C187.733,240.14,153.6,213.345,110.933,213.345z M110.933,315.745c-32.939,0-59.733-19.115-59.733-42.667 c0-23.552,26.795-42.667,59.733-42.667s59.733,19.115,59.733,42.667C170.667,296.631,143.872,315.745,110.933,315.745z" data-original="#000000" class="active-path" data-old_color="#000000" fill="#a9ff37"></path> <path d="M512,450.401c0.492-24.957-15.312-47.331-38.997-55.211c5.281-19.012,2.955-39.334-6.485-56.661 c-7.76-16.076-22.721-27.488-40.277-30.72c-3.981-29.696-29.345-51.849-59.307-51.797c-2.308,0.023-4.48-1.095-5.803-2.987 c-5.376-6.571-9.045-24.491-2.901-55.04c0.943-4.618-2.037-9.125-6.654-10.068c-0.562-0.115-1.135-0.173-1.708-0.172 c-40.704,0-73.045,53.504-76.8,123.904c-18.499-3.737-37.651,1.881-51.2,15.019V145.078c-0.035-29.667-21.837-54.813-51.2-59.051 V51.212c0-28.245-26.795-51.2-59.733-51.2S51.2,22.966,51.2,51.212v34.816C21.837,90.266,0.035,115.412,0,145.078v358.4 c0,4.713,3.82,8.533,8.533,8.533h460.8h1.707C498.603,506.465,512.683,476.172,512,450.401z M68.267,51.212 c0-18.859,19.115-34.133,42.667-34.133S153.6,32.353,153.6,51.212v34.133H68.267V51.212z M59.733,102.412h102.4 c20.278-0.004,37.758,14.265,41.813,34.133H17.92C21.976,116.677,39.455,102.408,59.733,102.412z M17.067,153.612H204.8v17.067 H17.067V153.612z M17.067,494.945v-17.067h155.221c1.9,6.114,4.782,11.878,8.533,17.067H17.067z M171.52,436.833 c-2.114,7.806-2.921,15.909-2.389,23.979H17.067V187.745H204.8v162.133c-8.414,16.361-8.414,35.777,0,52.139 C188.114,406.561,175.307,419.959,171.52,436.833z M468.395,494.945H206.592c-18.347-8.533-23.979-34.133-18.517-53.504 c2.613-15.33,17.064-25.712,32.427-23.296c4.653,0.747,9.031-2.42,9.778-7.073c0.431-2.684-0.443-5.413-2.354-7.348 c-19.029-19.029-12.629-42.667-1.365-57.088c11.264-14.421,32.427-25.6,50.688-14.933c4.054,2.404,9.289,1.066,11.692-2.988 c0.796-1.342,1.208-2.876,1.193-4.437c0-57.685,21.675-107.349,49.323-117.589c-3.584,25.6-0.597,45.995,8.533,57.088 c4.537,5.862,11.531,9.296,18.944,9.301c23.564,0,42.667,19.103,42.667,42.667c0,4.713,3.82,8.533,8.533,8.533 c14.393,0.594,27.242,9.194,33.28,22.272c8.533,16.555,9.899,38.4,2.304,49.749c-2.681,3.876-1.712,9.192,2.165,11.872 c1.11,0.768,2.386,1.261,3.723,1.44c20.623,2.545,35.925,20.36,35.328,41.131C495.445,469.345,486.4,490.849,468.395,494.945z" data-original="#000000" class="active-path" data-old_color="#000000" fill="#a9ff37"></path> </g> </g> </g></g> </svg> 