<?xml version="1.0" encoding="UTF-8"?> <svg xmlns="http://www.w3.org/2000/svg" width="512px" height="512px" viewBox="0 0 128 128"><g><g><path d="M86.769,12.89,75.73.579a1.75,1.75,0,0,0-2.991,1.626l4.392,16.184a15.277,15.277,0,0,1,.057,7.769L59.326,96.06a.354.354,0,0,1-.66,0L40.8,26.159a15.285,15.285,0,0,1,.057-7.771L45.253,2.205A1.75,1.75,0,0,0,42.261.579L31.224,12.89a18.76,18.76,0,0,0-4.3,16.756L42.845,98.267v13.58a16.151,16.151,0,0,0,32.3,0V98.267L91.073,29.646A18.765,18.765,0,0,0,86.769,12.89Zm.894,15.964L71.691,97.671a1.82,1.82,0,0,0-.045.395v13.781a12.651,12.651,0,0,1-25.3,0V98.066a1.76,1.76,0,0,0-.045-.395L30.328,28.854a15.265,15.265,0,0,1,3.5-13.628l6.114-6.82-2.46,9.066a18.79,18.79,0,0,0-.07,9.553l17.862,69.9a3.841,3.841,0,0,0,7.442,0l17.862-69.9a18.786,18.786,0,0,0-.071-9.552l-2.46-9.066,6.115,6.82A15.263,15.263,0,0,1,87.663,28.854Z" data-original="#000000" class="active-path" data-old_color="#000000" fill="#a9ff37"></path><path d="M59,105.7a6.151,6.151,0,1,0,6.15,6.152A6.158,6.158,0,0,0,59,105.7Zm0,8.8a2.651,2.651,0,1,1,2.65-2.65A2.653,2.653,0,0,1,59,114.5Z" data-original="#000000" class="active-path" data-old_color="#000000" fill="#a9ff37"></path></g></g></svg> 